<?xml version="1.0" encoding="UTF-8" standalone="no"?>
<!-- Created with Inkscape (http://www.inkscape.org/) -->

<svg
   width="137.64713mm"
   height="12.018338mm"
   viewBox="0 0 137.64713 12.018338"
   version="1.1"
   id="svg2159"
   inkscape:version="1.1 (c68e22c387, 2021-05-23)"
   sodipodi:docname="logo_v3.svg"
   xmlns:inkscape="http://www.inkscape.org/namespaces/inkscape"
   xmlns:sodipodi="http://sodipodi.sourceforge.net/DTD/sodipodi-0.dtd"
   xmlns="http://www.w3.org/2000/svg"
   xmlns:svg="http://www.w3.org/2000/svg">
  <sodipodi:namedview
     id="namedview2161"
     pagecolor="#ffffff"
     bordercolor="#666666"
     borderopacity="1.0"
     inkscape:pageshadow="2"
     inkscape:pageopacity="0.0"
     inkscape:pagecheckerboard="0"
     inkscape:document-units="mm"
     showgrid="false"
     inkscape:zoom="1.9628563"
     inkscape:cx="252.18351"
     inkscape:cy="61.390128"
     inkscape:window-width="1920"
     inkscape:window-height="1017"
     inkscape:window-x="-8"
     inkscape:window-y="-8"
     inkscape:window-maximized="1"
     inkscape:current-layer="text1529"
     inkscape:snap-global="false" />
  <defs
     id="defs2156" />
  <g
     inkscape:label="Layer 1"
     inkscape:groupmode="layer"
     id="layer1"
     transform="translate(-87.611893,-92.333243)">
    <g
       aria-label="ICE BREAKERS"
       id="text78029"
       style="font-weight:bold;font-size:10.6026px;line-height:1.25;font-family:Arial;-inkscape-font-specification:'Arial Bold';fill:#101434;fill-opacity:1;stroke-width:0.283996"
       transform="translate(77.551981,118.97936)">
      <g
         aria-label="ICE BREAKERZ"
         id="text1985"
         style="font-size:9.87777px;stroke-width:0.0751406">
        <g
           aria-label="ICE BREAKERZ"
           id="text1529"
           style="stroke-width:0.019881">
          <g
             aria-label="ICE BREAKERZ"
             id="text18932"
             style="font-size:17.4639px;stroke-width:0.00929998" />
          <path
             id="text18932-4"
             style="font-weight:bold;font-size:17.4639px;line-height:1.25;font-family:Arial;-inkscape-font-specification:'Arial Bold';fill:#0b2047;fill-opacity:1;stroke-width:0.00929998"
             d="m 90.665701,-25.494883 c -0.126805,0.349278 -0.592425,0.827951 0.05859,0.6875 0.946541,0.257738 0.763035,1.446295 1.148586,2.148599 0.84534,2.27165 1.746783,4.522362 2.675633,6.761557 0.817105,0.210452 0.32476,-0.382265 0.211653,-0.833505 -1.095785,-2.910666 -2.2286,-5.812377 -3.3347,-8.721182 -0.253964,-0.0015 -0.505486,-0.05925 -0.759766,-0.04297 z m 55.013669,0.203125 c -0.36341,0.122864 -1.20909,-0.292388 -1.08008,0.296875 0.0606,1.047417 -0.95212,1.604547 -1.43423,2.409878 -1.72966,2.218692 -3.42298,4.4643 -5.13413,6.697544 0.37022,-0.110602 1.01563,0.13653 1.19922,-0.105469 -0.12259,-1.180808 0.97967,-1.875696 1.54188,-2.759948 1.684,-2.179996 3.36173,-4.36481 5.0382,-6.550599 l -0.0996,0.0089 z m -133.722653,-0.002 c 0.295506,1.051444 0.03998,2.171334 0.124115,3.251169 -0.02522,2.026536 0.08061,4.07891 -0.07724,6.088675 0.195494,0.07485 1.083857,0.246672 0.701172,-0.335938 0.01848,-2.973328 -0.04572,-5.951533 0.04492,-8.925781 0.09587,-0.18276 -0.643713,-0.03602 -0.792969,-0.07813 z m 19.58789,0.0078 c 0.287132,1.05084 0.03813,2.165791 0.120215,3.243357 -0.02684,2.035728 0.09234,4.102523 -0.09287,6.117972 0.736169,0.314551 0.821814,-0.328705 0.716797,-0.972657 0,-2.80013 0,-5.60026 0,-8.40039 -0.239031,0.0075 -0.537663,-0.01514 -0.744141,0.01172 z m 18.017579,0.0078 c 0.289932,1.047391 0.03892,2.160991 0.122167,3.235544 -0.02684,2.035728 0.09234,4.102523 -0.09287,6.117972 0.592231,0.225319 0.851538,-0.151252 0.693359,-0.772657 0,-2.866797 0,-5.733593 0,-8.60039 -0.22308,0.01262 -0.55485,-0.02531 -0.722656,0.01953 z m 12.603515,-0.01758 c 0.294772,1.052735 0.04045,2.172484 0.124112,3.253122 -0.0232,2.025694 0.08376,4.078952 -0.0831,6.086722 0.232777,0.09487 1.090772,0.23028 0.697266,-0.373047 0.02164,-2.980721 0.004,-5.969377 0.0098,-8.953125 -0.249325,-0.0023 -0.498723,-0.01921 -0.748047,-0.01367 z m 13.181641,0.0098 c 0.287131,1.05084 0.03813,2.165791 0.120215,3.243357 -0.02684,2.035728 0.09234,4.102523 -0.09287,6.117972 0.736169,0.314551 0.821814,-0.328705 0.716797,-0.972657 -10e-7,-2.80013 0,-5.60026 0,-8.40039 -0.239032,0.0075 -0.537664,-0.01514 -0.744141,0.01172 z m 25.267578,0.0059 c 0.28328,1.049477 0.037,2.161817 0.11826,3.237497 -0.0268,2.034195 0.091,4.101054 -0.089,6.114065 0.32123,0.03934 1.07171,0.206657 0.70508,-0.392578 0.0515,-2.937555 -0.0691,-5.896409 0.0703,-8.828125 0.24542,-0.292174 -0.72948,-0.09804 -0.80468,-0.130859 z m 13.44726,-0.0059 c 0.28434,1.084032 0.0358,2.232631 0.11804,3.343356 -0.025,2.000835 0.0896,4.034403 -0.0887,6.014066 0.72238,0.323671 0.82355,-0.325328 0.71289,-0.96875 0,-2.80013 0,-5.60026 0,-8.40039 -0.23829,0.0075 -0.53648,-0.01517 -0.74219,0.01172 z m 12.62109,0 c 0.28714,1.05084 0.0381,2.165791 0.12021,3.243357 -0.0246,2.027656 0.0878,4.083059 -0.089,6.092581 0.25097,0.08258 1.09106,0.225923 0.70313,-0.378906 0.0216,-2.98007 0.004,-5.968075 0.01,-8.951172 -0.24303,0.0032 -0.53339,-0.02618 -0.74415,-0.0059 z m -71.962881,0.164063 c 0.655991,0.737377 0.833993,1.819211 0.630859,2.765625 0.943157,-0.492913 1.172226,-2.218721 -0.0086,-2.566397 -0.189382,-0.09237 -0.474418,-0.179539 -0.62228,-0.199228 z m 12.6875,0.0918 c 0.832398,0.912584 0.810858,2.432896 0.410156,3.421875 1.228093,-0.579555 1.496459,-2.570234 0.257812,-3.273438 -0.10749,-0.0459 -0.923793,-0.366399 -0.667968,-0.148437 z m 64.515621,0.002 c 0.79282,0.933678 0.86575,2.340629 0.37695,3.433594 1.28495,-0.568744 1.54492,-2.68032 0.20508,-3.330078 -0.10312,-0.02851 -0.85612,-0.323175 -0.58203,-0.103516 z m -112.017574,0.480469 c -1.87321,1.390822 -2.157487,4.121131 -1.387641,6.187444 0.508385,1.363369 1.800239,2.30847 3.204047,2.58404 -2.177837,-0.947091 -2.948035,-3.571534 -2.751426,-5.768079 0.09601,-1.034648 0.357343,-2.19226 0.93502,-3.003405 z m 84.134764,3.914062 c 1.11377,1.61233 2.35021,3.14771 3.50586,4.736328 0.9399,0.204351 0.35416,-0.336873 0.051,-0.788598 -1.07737,-1.432461 -2.15812,-2.865606 -3.23071,-4.303199 -0.10873,0.11849 -0.21745,0.23698 -0.32617,0.355469 z m -37.527343,0.412109 c -0.81603,0.07784 -0.04827,0.629162 0.123047,1.017579 0.706294,1.083566 1.411627,2.169778 2.150391,3.232421 0.5611,0.183203 0.874353,0.103574 0.360151,-0.403132 -0.841903,-1.302742 -1.765408,-2.567064 -2.633589,-3.846868 z m 64.507803,0.0059 c -0.85649,0.09671 0.0728,0.745832 0.22394,1.166599 0.72087,1.022396 1.33447,2.183575 2.14325,3.104885 0.58875,0.173669 0.68085,-0.0037 0.25196,-0.460937 -0.84006,-1.286797 -1.74966,-2.564948 -2.61915,-3.810547 z m -75.224599,0.582031 c 0.47871,1.092045 0.470522,2.489672 -0.3125,3.441406 1.127248,-0.298681 1.838492,-1.695168 1.213822,-2.724947 -0.211922,-0.343522 -0.546147,-0.602864 -0.9189,-0.751615 z m 81.733779,3.513355 6.11237,-8.001641 0.55567,-0.619175 v -0.174639 h -4.1199 q -0.11113,0 -0.20639,0.08732 -0.0873,0.07938 -0.11907,0.21433 l -0.39691,1.682884 h -1.20659 v -3.461027 h 9.54164 v 1.222473 l -6.14412,8.001641 -0.55567,0.642989 v 0.174639 h 4.77876 q 0.11113,0 0.20639,-0.0635 0.0953,-0.07144 0.13495,-0.246082 l 0.3969,-1.913091 h 1.19866 v 3.699172 h -10.17669 z m -12.66926,0.508041 1.28598,-0.523917 q 0.11113,-0.04763 0.19052,-0.12701 0.0873,-0.07938 0.0873,-0.254021 v -8.263599 q 0,-0.158763 -0.0873,-0.230206 -0.0794,-0.07938 -0.19052,-0.119072 l -1.28598,-0.523917 v -0.738247 h 6.00123 q 0.88114,0 1.54,0.119072 0.6668,0.119072 1.13515,0.333402 0.47629,0.206391 0.77794,0.492164 0.30959,0.277835 0.48423,0.603299 0.18258,0.325463 0.25402,0.682679 0.0714,0.349278 0.0714,0.698556 0,0.658866 -0.19845,1.158968 -0.19845,0.500103 -0.51598,0.873195 -0.31753,0.365154 -0.72237,0.619175 -0.39691,0.246082 -0.80175,0.396907 l 2.67515,3.897624 q 0.0476,0.07144 0.1032,0.150825 0.0635,0.07144 0.13494,0.142887 0.0794,0.0635 0.15877,0.119072 0.0794,0.05557 0.1667,0.07938 l 1.2701,0.412783 v 0.738247 h -3.02443 q -0.42072,0 -0.65887,-0.06351 -0.23814,-0.07144 -0.40484,-0.206392 -0.15876,-0.134948 -0.28577,-0.34134 -0.12701,-0.214329 -0.31753,-0.500102 l -2.45288,-3.715048 -1.08753,-0.269897 v 3.453089 q 0,0.174639 0.0794,0.254021 0.0873,0.07144 0.21433,0.12701 l 1.27804,0.523917 v 0.738247 h -5.87422 z m 5.46938,-5.405871 q 0.49216,0 0.84938,-0.166701 0.35721,-0.174639 0.58742,-0.452473 0.23021,-0.277835 0.34134,-0.635051 0.11113,-0.365155 0.11113,-0.738247 0,-1.000205 -0.52391,-1.460617 -0.52392,-0.460412 -1.53206,-0.460412 h -1.00021 v 3.818244 q 0.0635,0.01588 0.21433,0.03175 0.15876,0.01588 0.3334,0.03175 0.18258,0.01588 0.34928,0.02381 0.17464,0.0079 0.2699,0.0079 z m -18.09101,5.405871 1.28598,-0.523917 q 0.11907,-0.04763 0.19846,-0.12701 0.0794,-0.07938 0.0794,-0.254021 v -8.263599 q 0,-0.158763 -0.0873,-0.230206 -0.0794,-0.07938 -0.19052,-0.119072 l -1.28598,-0.523917 v -0.738247 h 10.22432 v 3.302265 h -1.21453 l -0.39691,-1.524122 q -0.0397,-0.150825 -0.12701,-0.222268 -0.0794,-0.07938 -0.21433,-0.07938 h -3.96907 v 3.357832 h 2.09567 q 0.1667,0 0.22227,-0.0635 0.0635,-0.07144 0.11907,-0.238144 l 0.39691,-1.238349 h 1.0002 v 4.477108 h -1.0002 l -0.39691,-1.230411 q -0.0397,-0.134948 -0.11113,-0.222268 -0.0635,-0.08732 -0.23021,-0.08732 h -2.09567 v 3.810305 h 4.56443 q 0.11114,0 0.20639,-0.08732 0.0953,-0.08732 0.12701,-0.222268 l 0.40485,-1.698761 h 1.2066 v 3.484842 h -10.81175 z m -13.447177,0 1.285977,-0.523917 q 0.12701,-0.05557 0.19845,-0.12701 0.0794,-0.07938 0.0794,-0.254021 v -8.263599 q 0,-0.158763 -0.0873,-0.230206 -0.0794,-0.07144 -0.19052,-0.119072 l -1.285977,-0.523917 v -0.738247 h 5.874217 v 0.738247 l -1.27804,0.523917 q -0.11113,0.04763 -0.20639,0.119072 -0.0873,0.07144 -0.0873,0.230206 v 4.318346 l 4.33422,-4.715253 -0.70649,-0.476288 v -0.738247 h 4.33422 v 0.738247 l -1.35742,0.428659 q -0.15876,0.04763 -0.31752,0.134948 -0.15877,0.08732 -0.30959,0.246083 l -3.13556,3.246697 3.84999,5.135974 q 0.0397,0.05557 0.1032,0.127011 0.0635,0.0635 0.13495,0.134948 0.0714,0.0635 0.14288,0.119072 0.0714,0.05557 0.13495,0.07938 l 1.17484,0.42866 v 0.698556 h -5.0804 v -0.698556 l 0.46835,-0.412783 -2.9768,-3.984945 -0.79382,0.317526 v 3.135563 q 0,0.174639 0.0873,0.254021 0.0953,0.07938 0.20639,0.12701 l 1.27804,0.523917 v 0.738247 h -5.874217 z m -13.558333,0 0.849381,-0.412783 q 0.269896,-0.12701 0.388968,-0.428659 l 3.254636,-8.192157 0.960515,-1.921029 h 2.135358 l 3.889687,10.152876 q 0.05557,0.134949 0.142887,0.254021 0.08732,0.119072 0.206391,0.1667 l 0.889071,0.381031 v 0.738247 h -5.27886 v -0.738247 l 1.325669,-0.523917 -0.944639,-2.309998 h -4.143707 l -0.873195,2.262369 1.349483,0.571546 v 0.738247 H 85.23394 Z m 7.271333,-4.238965 -1.095463,-2.825976 -0.285773,-1.071649 h -0.174639 l -1.476493,3.897625 z m -18.980071,4.238965 1.285978,-0.523917 q 0.119072,-0.04763 0.198453,-0.12701 0.07938,-0.07938 0.07938,-0.254021 v -8.263599 q 0,-0.158763 -0.08732,-0.230206 -0.07938,-0.07938 -0.190515,-0.119072 L 73.5252,-25.65385 v -0.738247 h 10.224319 v 3.302265 h -1.214535 l -0.396906,-1.524122 q -0.03969,-0.150825 -0.127011,-0.222268 -0.07938,-0.07938 -0.214329,-0.07938 H 77.82767 v 3.357832 h 2.095668 q 0.1667,0 0.222267,-0.0635 0.06351,-0.07144 0.119072,-0.238144 l 0.396907,-1.238349 h 1.000205 v 4.477108 h -1.000205 l -0.396907,-1.230411 q -0.03969,-0.134948 -0.111133,-0.222268 -0.06351,-0.08732 -0.230206,-0.08732 H 77.82767 v 3.810305 h 4.56443 q 0.111134,0 0.206391,-0.08732 0.09526,-0.08732 0.127011,-0.222268 l 0.404845,-1.698761 h 1.206596 v 3.484842 H 73.525202 Z m -13.177303,0 1.285978,-0.523917 q 0.111133,-0.04763 0.190515,-0.12701 0.08732,-0.07938 0.08732,-0.254021 v -8.263599 q 0,-0.158763 -0.08732,-0.230206 -0.07938,-0.07938 -0.190515,-0.119072 l -1.285978,-0.523917 v -0.738247 h 6.00123 q 0.881134,0 1.539999,0.119072 0.666803,0.119072 1.135153,0.333402 0.476289,0.206391 0.777938,0.492164 0.309587,0.277835 0.484226,0.603299 0.182577,0.325463 0.25402,0.682679 0.07144,0.349278 0.07144,0.698556 0,0.658866 -0.198454,1.158968 -0.198453,0.500103 -0.515979,0.873195 -0.317525,0.365154 -0.72237,0.619175 -0.396907,0.246082 -0.801752,0.396907 l 2.675152,3.897624 q 0.04763,0.07144 0.103196,0.150825 0.06351,0.07144 0.134948,0.142887 0.07938,0.0635 0.158763,0.119072 0.07938,0.05557 0.166701,0.07938 l 1.270102,0.412783 v 0.738247 h -3.02443 q -0.420722,0 -0.658866,-0.06351 -0.238144,-0.07144 -0.404845,-0.206392 -0.158762,-0.134948 -0.285772,-0.34134 -0.127011,-0.214329 -0.317526,-0.500102 l -2.452884,-3.715048 -1.087525,-0.269897 v 3.453089 q 0,0.174639 0.07938,0.254021 0.08732,0.07144 0.214329,0.12701 l 1.27804,0.523917 v 0.738247 h -5.87422 z m 5.469375,-5.405871 q 0.492165,0 0.849381,-0.166701 0.357216,-0.174639 0.587422,-0.452473 0.230206,-0.277835 0.34134,-0.635051 0.111134,-0.365155 0.111134,-0.738247 0,-1.000205 -0.523917,-1.460617 -0.523917,-0.460412 -1.532061,-0.460412 h -1.000205 v 3.818244 q 0.06351,0.01588 0.21433,0.03175 0.158763,0.01588 0.333402,0.03175 0.182577,0.01588 0.349278,0.02381 0.174639,0.0079 0.269896,0.0079 z m -18.075115,5.405871 1.285978,-0.523917 q 0.119072,-0.04763 0.198453,-0.12701 0.07938,-0.07938 0.07938,-0.254021 v -8.263599 q 0,-0.158763 -0.09526,-0.230206 -0.08732,-0.07938 -0.182577,-0.119072 l -1.285978,-0.523917 v -0.738247 h 5.945664 q 1.270102,0 2.08773,0.21433 0.817628,0.214329 1.285978,0.571546 0.46835,0.357216 0.642989,0.817628 0.182577,0.460411 0.182577,0.952576 0,0.547731 -0.174639,1.000205 -0.166701,0.452474 -0.484226,0.801752 -0.309588,0.349278 -0.762061,0.59536 -0.452474,0.246082 -1.016082,0.381031 v 0.09526 q 0.698556,0.03969 1.285978,0.246082 0.587422,0.206392 1.008144,0.563608 0.428659,0.357216 0.666803,0.849381 0.238144,0.492164 0.238144,1.095462 0,0.658866 -0.182577,1.166907 -0.182577,0.50804 -0.508041,0.881133 -0.317525,0.365154 -0.769999,0.619174 -0.444536,0.246082 -0.968453,0.396907 -0.523917,0.142887 -1.111339,0.206392 -0.579484,0.06351 -1.182782,0.06351 h -6.183808 z m 5.064531,-5.850406 q 0.635051,0 1.06371,-0.103196 0.428659,-0.111134 0.690618,-0.317526 0.261958,-0.206391 0.373092,-0.500102 0.111134,-0.293711 0.111134,-0.666804 0,-0.992267 -0.46835,-1.436802 -0.460412,-0.444536 -1.508246,-0.444536 h -1.047834 v 3.468966 z m 0.817628,5.128036 q 1.071648,0 1.587627,-0.420722 0.515979,-0.420721 0.515979,-1.365359 0,-0.547731 -0.12701,-0.928762 -0.12701,-0.38103 -0.412783,-0.619175 -0.277835,-0.238144 -0.738247,-0.341339 -0.452474,-0.103196 -1.111339,-0.103196 h -1.317731 v 3.778553 z m -23.901698,0.72237 1.285978,-0.523917 q 0.119072,-0.04763 0.198454,-0.12701 0.07938,-0.07938 0.07938,-0.254021 v -8.263599 q 0,-0.158763 -0.08732,-0.230206 -0.07938,-0.07938 -0.190515,-0.119072 L 29.72262,-25.65385 v -0.738247 h 10.224319 v 3.302265 h -1.214534 l -0.396907,-1.524122 q -0.03969,-0.150825 -0.12701,-0.222268 -0.07938,-0.07938 -0.21433,-0.07938 H 34.02509 v 3.357832 h 2.095668 q 0.166701,0 0.222268,-0.0635 0.0635,-0.07144 0.119072,-0.238144 l 0.396906,-1.238349 h 1.000206 v 4.477108 h -1.000206 l -0.396906,-1.230411 q -0.03969,-0.134948 -0.111134,-0.222268 -0.0635,-0.08732 -0.230206,-0.08732 H 34.02509 v 3.810305 h 4.564428 q 0.111134,0 0.206392,-0.08732 0.09526,-0.08732 0.12701,-0.222268 l 0.404845,-1.698761 h 1.206597 v 3.484842 H 29.72262 Z m -5.993264,0.984329 q -1.349483,0 -2.452884,-0.404845 -1.103401,-0.412783 -1.889276,-1.182782 -0.785876,-0.77 -1.214535,-1.881339 -0.42866,-1.111339 -0.42866,-2.516389 0,-0.920824 0.198454,-1.722575 0.206391,-0.80969 0.579484,-1.476494 0.38103,-0.674741 0.920823,-1.198658 0.539794,-0.523917 1.206597,-0.889071 0.674742,-0.365155 1.460617,-0.55567 0.785876,-0.190515 1.667009,-0.190515 0.476288,0 1.047834,0.0635 0.571546,0.05557 1.135153,0.150824 0.571546,0.08732 1.079587,0.190516 0.515979,0.09526 0.873195,0.174639 v 3.254635 h -1.198659 l -0.404845,-1.539998 q -0.02381,-0.09526 -0.150824,-0.198453 -0.12701,-0.103196 -0.21433,-0.150825 -0.404845,-0.222268 -0.825566,-0.373092 -0.420721,-0.158763 -0.960515,-0.158763 -0.785875,0 -1.428864,0.261958 -0.642989,0.254021 -1.095463,0.785876 -0.452474,0.523917 -0.698556,1.325669 -0.246082,0.793813 -0.246082,1.865462 0,1.119277 0.269896,1.976596 0.269897,0.84938 0.77,1.428864 0.500102,0.571546 1.206596,0.865257 0.714433,0.293711 1.603504,0.293711 0.523917,0 0.968453,-0.111134 0.452473,-0.119072 0.817628,-0.285773 0.373092,-0.166701 0.658865,-0.357216 0.293711,-0.190515 0.500102,-0.349278 h 0.642989 v 1.174844 q -0.349278,0.285773 -0.833504,0.59536 -0.476288,0.30165 -1.047834,0.55567 -0.563607,0.25402 -1.206597,0.412783 -0.63505,0.166701 -1.309792,0.166701 z m -13.669444,-0.984329 1.365359,-0.523917 q 0.134949,-0.05557 0.206392,-0.12701 0.07144,-0.07938 0.07144,-0.254021 v -8.263599 q 0,-0.158763 -0.08732,-0.230206 -0.07938,-0.07938 -0.190515,-0.119072 l -1.365359,-0.523917 v -0.738247 h 6.032983 v 0.738247 l -1.357421,0.523917 q -0.12701,0.04763 -0.21433,0.119072 -0.07938,0.07144 -0.07938,0.230206 v 8.263599 q 0,0.174639 0.07938,0.254021 0.08732,0.07938 0.21433,0.12701 l 1.357421,0.523917 v 0.738247 h -6.032983 z" />
        </g>
      </g>
    </g>
  </g>
</svg>
